<svg xmlns="http://www.w3.org/2000/svg" xmlns:xlink="http://www.w3.org/1999/xlink" width="318.297" height="41.999" viewBox="0 0 318.297 41.999">
  <defs>
    <clipPath id="clip-path">
      <rect id="Rectangle_26" data-name="Rectangle 26" width="318.297" height="41.999" transform="translate(0 0)" fill="#2f2e41"/>
    </clipPath>
  </defs>
  <g id="Group_58" data-name="Group 58" transform="translate(0 0)">
    <g id="Group_58-2" data-name="Group 58" clip-path="url(#clip-path)">
      <path id="Path_261" data-name="Path 261" d="M39.151,0H33.426L0,33.426v5.725a2.837,2.837,0,0,0,.836,2.014L41.166.835A2.84,2.84,0,0,0,39.151,0" fill="#ef7835"/>
      <path id="Path_262" data-name="Path 262" d="M22.28,0,0,22.28v8.574L30.854,0Z" fill="#f6c400"/>
      <path id="Path_263" data-name="Path 263" d="M11.134,0,0,11.134v8.574L19.708,0Z" fill="#a1a739"/>
      <path id="Path_264" data-name="Path 264" d="M2.848,0A2.848,2.848,0,0,0,0,2.848V8.563L8.562,0Z" fill="#2d4f7b"/>
      <path id="Path_265" data-name="Path 265" d="M22.984,28.781a28.77,28.77,0,0,1-2.025-5l-.056-.112L2.6,41.974c.084.007.164.025.25.025h8.3l12.3-12.3c-.156-.3-.319-.606-.466-.915" fill="#d83548"/>
      <path id="Path_266" data-name="Path 266" d="M35.718,29.526v0L29.662,35.7a1.355,1.355,0,0,0-.12,1.755L32.922,42h6.229A2.848,2.848,0,0,0,42,39.151V33.132l-4.451-3.7a1.352,1.352,0,0,0-1.83.094" fill="#2f2e41"/>
      <path id="Path_267" data-name="Path 267" d="M33.9,28.545l0,0a34.925,34.925,0,0,0-6.049-3.687,26.826,26.826,0,0,0-4.875-1.957c-.145-.031-.153.053-.148.1a.072.072,0,0,0,.007.038,26.99,26.99,0,0,0,1.962,4.875,35,35,0,0,0,3.683,6.049.691.691,0,0,0,.968.126c.022-.018.044-.037.065-.057.659-.669,1.824-1.859,2.21-2.254l.007.006,2.242-2.212a.685.685,0,0,0,0-.969.624.624,0,0,0-.072-.063" fill="#d83548"/>
      <path id="Path_268" data-name="Path 268" d="M58.077,22.992V34.248h-4.7V6.508h10.71c5.737,0,9.441,2.891,9.441,8.312,0,4.652-2.71,7.317-7.091,8l8.04,11.429h-5.33L61.422,22.992Zm0-3.93H64c3.117,0,4.877-1.672,4.877-4.246S67.114,10.568,64,10.568h-5.92Z" fill="#2f2e41" fill-rule="evenodd"/>
      <path id="Path_269" data-name="Path 269" d="M93.05,28.047c-.678,3.974-3.614,6.686-8.448,6.686-5.6,0-9.486-4.246-9.486-10.436,0-6.008,3.93-10.524,9.4-10.524,5.646,0,8.718,4.02,8.718,9.893v1.626H79.543c.136,3.522,2.169,5.646,5.059,5.646,2.168,0,3.8-.949,4.292-2.891ZM79.679,22h9.079c-.044-2.44-1.444-4.426-4.2-4.426-2.485,0-4.339,1.534-4.879,4.426" fill="#2f2e41" fill-rule="evenodd"/>
      <path id="Path_270" data-name="Path 270" d="M103.094,25.614l-1.852,1.9v6.64H96.723V4.79h4.518V22.317L109.1,14.1h5.782l-8.538,8.673,8.849,11.383h-5.466l-6.64-8.538" fill="#2f2e41" fill-rule="evenodd"/>
      <rect id="Rectangle_25" data-name="Rectangle 25" width="4.514" height="29.363" transform="translate(117.76 4.789)" fill="#2f2e41"/>
      <path id="Path_271" data-name="Path 271" d="M137.913,34.283V33.154a8.056,8.056,0,0,1-4.969,1.49c-4.11,0-7.5-2.439-7.5-6.55,0-3.8,3.388-6.46,7.815-6.46a9.4,9.4,0,0,1,4.653,1.219V21.231c0-2.033-1.265-3.614-3.84-3.614a3.262,3.262,0,0,0-3.433,2.169H126.3c.588-3.434,3.749-6.008,7.86-6.008,5.059,0,8.041,2.8,8.041,7.362V34.283Zm0-7c-.5-1.264-2.3-2.033-4.11-2.033-2.034,0-4.156.859-4.156,2.847,0,2.032,2.122,2.891,4.156,2.891,1.806,0,3.613-.769,4.11-2.034Z" fill="#2f2e41" fill-rule="evenodd"/>
      <path id="Path_272" data-name="Path 272" d="M167.269,13.772c4.111,0,6.5,2.891,6.5,7.453V34.28h-4.518V21.944c0-2.484-1.085-4.11-3.3-4.11a3.55,3.55,0,0,0-3.57,2.981V34.28h-4.518V21.944c0-2.484-1.083-4.11-3.3-4.11a3.548,3.548,0,0,0-3.568,2.981V34.28h-4.526V14.229h4.526V15.9a6.161,6.161,0,0,1,5.015-2.124,6.427,6.427,0,0,1,5.285,2.666,7.4,7.4,0,0,1,5.963-2.666" fill="#2f2e41" fill-rule="evenodd"/>
      <path id="Path_273" data-name="Path 273" d="M195.146,28.047c-.677,3.974-3.614,6.686-8.448,6.686-5.6,0-9.486-4.246-9.486-10.436,0-6.008,3.93-10.524,9.4-10.524,5.647,0,8.719,4.02,8.719,9.893v1.626h-13.69c.135,3.522,2.168,5.646,5.059,5.646,2.169,0,3.8-.949,4.292-2.891ZM181.776,22h9.08c-.045-2.44-1.445-4.426-4.2-4.426-2.486,0-4.338,1.534-4.88,4.426" fill="#2f2e41" fill-rule="evenodd"/>
      <path id="Path_274" data-name="Path 274" d="M202.172,28.5c.5,1.672,1.987,2.529,3.975,2.529,2.078,0,3.433-.813,3.433-2.394,0-1.085-.676-1.672-2.348-2.078l-4.156-1c-2.845-.678-4.969-2.212-4.969-5.511,0-3.614,3.207-6.278,7.589-6.278,4.7,0,7.363,2.258,8.042,5.917H209.31c-.406-1.309-1.58-2.213-3.66-2.213-1.579,0-3.206.722-3.206,2.3,0,.9.633,1.492,2.079,1.853l4.246.993c3.433.813,5.149,2.755,5.149,5.692,0,3.975-3.3,6.414-7.816,6.414-4.7,0-7.949-2.35-8.536-6.234h4.608" fill="#2f2e41" fill-rule="evenodd"/>
      <path id="Path_275" data-name="Path 275" d="M234.2,28.047c-.677,3.974-3.614,6.686-8.448,6.686-5.6,0-9.486-4.246-9.486-10.436,0-6.008,3.93-10.524,9.4-10.524,5.647,0,8.718,4.02,8.718,9.893v1.626H220.7c.135,3.522,2.168,5.646,5.059,5.646,2.168,0,3.8-.949,4.292-2.891ZM220.828,22h9.08c-.045-2.44-1.445-4.426-4.2-4.426-2.486,0-4.338,1.534-4.88,4.426" fill="#2f2e41" fill-rule="evenodd"/>
      <path id="Path_276" data-name="Path 276" d="M249.622,18.787a4.974,4.974,0,0,0-2.665-.678,3.91,3.91,0,0,0-4.021,3.207V34.282h-4.517V14.229h4.517v2.078a5.038,5.038,0,0,1,4.472-2.531,5.628,5.628,0,0,1,2.213.362v4.653" fill="#2f2e41" fill-rule="evenodd"/>
      <path id="Path_277" data-name="Path 277" d="M258.74,34.282,251.15,14.23h4.833l5.2,14.68,5.151-14.68h4.7l-7.643,20.056h-4.652" fill="#2f2e41" fill-rule="evenodd"/>
      <path id="Path_278" data-name="Path 278" d="M275.3,10.8a2.756,2.756,0,1,1,2.8-2.755,2.8,2.8,0,0,1-2.8,2.755m2.26,23.355h-4.517V14.1h4.518Z" fill="#2f2e41" fill-rule="evenodd"/>
      <path id="Path_279" data-name="Path 279" d="M289.933,13.775c4.788,0,7.814,2.711,8.4,6.731h-4.518a3.563,3.563,0,0,0-3.839-2.8c-3.027,0-4.879,2.755-4.879,6.55s1.852,6.55,4.879,6.55a3.563,3.563,0,0,0,3.839-2.8h4.518c-.588,4.02-3.614,6.73-8.4,6.73-5.421,0-9.351-4.246-9.351-10.48s3.93-10.48,9.351-10.48" fill="#2f2e41" fill-rule="evenodd"/>
      <path id="Path_280" data-name="Path 280" d="M318.115,28.047c-.678,3.974-3.614,6.686-8.448,6.686-5.6,0-9.487-4.246-9.487-10.436,0-6.008,3.931-10.524,9.4-10.524,5.646,0,8.717,4.02,8.717,9.893v1.626H304.608c.136,3.522,2.168,5.646,5.059,5.646,2.168,0,3.8-.949,4.292-2.891ZM304.744,22h9.08c-.044-2.44-1.445-4.426-4.2-4.426-2.486,0-4.338,1.534-4.879,4.426" fill="#2f2e41" fill-rule="evenodd"/>
    </g>
  </g>
</svg>
