<svg xmlns="http://www.w3.org/2000/svg" width="41.999" height="41.999" viewBox="0 0 41.999 41.999">
  <g id="Group_83" data-name="Group 83" transform="translate(162 -129)">
    <path id="Path_323" data-name="Path 323" d="M39.151,0H33.426L0,33.426v5.725a2.837,2.837,0,0,0,.836,2.014L41.166.835A2.84,2.84,0,0,0,39.151,0" transform="translate(-162 129)" fill="#2f2e41"/>
    <path id="Path_324" data-name="Path 324" d="M22.28,0,0,22.28v8.574L30.854,0Z" transform="translate(-162 129)" fill="#2f2e41"/>
    <path id="Path_325" data-name="Path 325" d="M11.134,0,0,11.134v8.574L19.708,0Z" transform="translate(-162 129)" fill="#2f2e41"/>
    <path id="Path_326" data-name="Path 326" d="M2.848,0A2.848,2.848,0,0,0,0,2.848V8.563L8.562,0Z" transform="translate(-162 129)" fill="#2f2e41"/>
    <path id="Path_327" data-name="Path 327" d="M22.984,28.781a28.77,28.77,0,0,1-2.025-5l-.056-.112L2.6,41.974c.084.007.164.025.25.025h8.3l12.3-12.3c-.156-.3-.319-.606-.466-.915" transform="translate(-162 129)" fill="#2f2e41"/>
    <path id="Path_328" data-name="Path 328" d="M35.718,29.526v0L29.662,35.7a1.355,1.355,0,0,0-.12,1.755L32.922,42h6.229A2.848,2.848,0,0,0,42,39.151V33.132l-4.451-3.7a1.352,1.352,0,0,0-1.83.094" transform="translate(-162 129)" fill="#2f2e41"/>
    <path id="Path_329" data-name="Path 329" d="M33.9,28.545l0,0a34.925,34.925,0,0,0-6.049-3.687,26.826,26.826,0,0,0-4.875-1.957c-.145-.031-.153.053-.148.1a.072.072,0,0,0,.007.038,26.99,26.99,0,0,0,1.962,4.875,35,35,0,0,0,3.683,6.049.691.691,0,0,0,.968.126c.022-.018.044-.037.065-.057.659-.669,1.824-1.859,2.21-2.254l.007.006,2.242-2.212a.685.685,0,0,0,0-.969.624.624,0,0,0-.072-.063" transform="translate(-162 129)" fill="#2f2e41"/>
  </g>
</svg>
