<svg xmlns="http://www.w3.org/2000/svg" width="754" height="557" viewBox="0 0 754 557">
  <g id="Group_84" data-name="Group 84" transform="translate(-196 -194)">
    <g id="Group_83" data-name="Group 83">
      <g id="Group_43" data-name="Group 43" transform="translate(-3 18)">
        <path id="Path_256" data-name="Path 256" d="M0,349.557v89.726H.439L437.185,0H347.093Z" transform="translate(484.618 257)" fill="#2f2e41" opacity="0.1"/>
        <path id="Path_257" data-name="Path 257" d="M231.748,0,0,232.229v89.789L321.3,0Z" transform="translate(484.621 257.004)" fill="#2f2e41" opacity="0.1"/>
      </g>
      <g id="Group_1" data-name="Group 1" transform="translate(289.333 203.448)">
        <path id="Path_3" data-name="Path 3" d="M518.8,609.569H508.353l-4.967-40.275H518.8Z" transform="translate(-76.023 -96.197)" fill="#FFBCBC"/>
        <path id="Path_4" data-name="Path 4" d="M753.146,760.612H719.477v-.426a13.105,13.105,0,0,1,13.1-13.1h0l6.15-4.666,11.475,4.667h2.939Z" transform="translate(-307.71 -237.118)" fill="#2f2e41"/>
        <path id="Path_5" data-name="Path 5" d="M713.107,566.987l-7.12,7.638L673.137,550.8l10.508-11.273Z" transform="translate(-101.659 -91.701)" fill="#FFBCBC"/>
        <path id="Path_6" data-name="Path 6" d="M960.657,711.258,937.7,735.887l-.312-.29a13.106,13.106,0,0,1-.652-18.522h0l.78-7.68,11.237-5.212,2-2.15Z" transform="translate(-339.99 -231.019)" fill="#2f2e41"/>
        <path id="Path_7" data-name="Path 7" d="M903.88,657.325l-11.037,23.083L825.07,635.536,815.211,622.1l-32.328-44.047-13.141,20.852L760.6,620.7h0a24.027,24.027,0,0,0-10.76,17.535l-.418,3.859,5.778,51.942-21.961,6.743-12.613-69.778,4.123-15.12,4.245-21.224,21.372-67.069h57.191l32.8,69.822,2.4,14.227,9.3,10.674Z" transform="translate(-307.883 -204.675)" fill="#2f2e41"/>
        <path id="Path_8" data-name="Path 8" d="M789.355,398.341l9.627,7.331,11.611,3.568s4.8,67.518,9.125,71.843.424,4.441,1.293,10.06,2.981,17.135,2.981,17.135c-29.194,15.454-54.362,15.868-74.578-2.215a5.035,5.035,0,0,1,2.747-5.684c3.763-2-3.469-11.315-.393-12.873s-1.25-15.074-1.25-15.074l2.837-28.2-2.242-4.508,5.47-27.582,9.492-3.466,3.792-9.135Z" transform="translate(-312.212 -185.155)" fill="#ef7835"/>
        <path id="Path_9" data-name="Path 9" d="M803.586,533.476a8.346,8.346,0,0,1,9.515-8.558l13.568-26.372,7.559,13.431-14.043,22.984a8.391,8.391,0,0,1-16.6-1.485Z" transform="translate(-320.412 -200.288)" fill="#FFBCBC"/>
        <path id="Path_10" data-name="Path 10" d="M827.73,513.809l29.1-45.1-.1-.208c-.11-.238-6.7-14.47-13.085-27.507-.983-2.008-1.962-3.987-2.911-5.882q-.614-1.227-1.211-2.4c-2.682-5.287-5.025-9.657-6.424-11.733a24.634,24.634,0,0,0-13.053-9.9l-.135-.035-.129.054a12.5,12.5,0,0,0-7.439,13.751,88.544,88.544,0,0,0,16.43,37.147l4.718,6.219-16.4,35.644Z" transform="translate(-321.705 -187.072)" fill="#ef7835"/>
        <path id="Path_11" data-name="Path 11" d="M710,327.925a8.346,8.346,0,0,1-2,12.64l6.066,29.031-14.33-5.673-3.564-26.7a8.391,8.391,0,0,1,13.83-9.3Z" transform="translate(-304.051 -174.079)" fill="#FFBCBC"/>
        <path id="Path_12" data-name="Path 12" d="M696.5,351.3,702.3,404.66l.205.1c.169.083,7.511,3.684,16.522,7.972,1.52.723,1.3,3.857,2.891,4.606,1.094.516,3.985-1.356,5.09-.839,9.85,4.606,19.81,9.085,23.78,10.3a24.634,24.634,0,0,0,16.376-.527l.126-.058.066-.123a12.5,12.5,0,0,0-2.88-15.367,88.545,88.545,0,0,0-36.155-18.511l-7.581-1.86-9.709-38.014Z" transform="translate(-304.241 -178.05)" fill="#ef7835"/>
        <circle id="Ellipse_1" data-name="Ellipse 1" cx="19.043" cy="19.043" r="19.043" transform="translate(447.835 172.077)" fill="#FFBCBC"/>
        <path id="Path_13" data-name="Path 13" d="M761.7,355.865c1.566-4.556,9.362-7.716,22-8.156s15.843,14.455,15.843,14.455c8.437,6.844-9.009,25.168-9.853,24.508l.38-3.443c.628-5.7,3.3-10.152-.1-16.094l-3.261.037L774.081,369.6l4.986-4.39-.141-.217a19.3,19.3,0,0,1-6.806,2.066c-2.68.158-5.61-.909-6.893-3.267a5.492,5.492,0,0,1-.616-2.089c-3.614,1.444-5.266,5.9-5.266,5.9A68.322,68.322,0,0,1,761.7,355.865Z" transform="translate(-313.731 -177.507)" fill="#2f2e41"/>
        <path id="Path_14" data-name="Path 14" d="M324.687,358.443a10.183,10.183,0,0,0-.833-.933c.072-.1.145-.208.217-.308Z" transform="translate(-247.962 -178.942)" fill="#2f2e41"/>
        <path id="Path_15" data-name="Path 15" d="M319.335,434.461c-3.115,5.533-9.336,8.621-15.5,10.133a38.738,38.738,0,0,1-21.072-.408c-.869-.281-1.739-.607-2.581-.969a22.25,22.25,0,0,0,.96-3.305,22.67,22.67,0,0,0,.471-4.627,14.608,14.608,0,0,1-2.635,3.631,13.327,13.327,0,0,1-2.762,2.218,27.123,27.123,0,0,1-8.014-7.444c.136-.335.272-.67.4-1.005a36.128,36.128,0,0,0,1.557-5.379,36.778,36.778,0,0,0,.77-7.525,23.642,23.642,0,0,1-4.292,5.9,19.251,19.251,0,0,1-1.648,1.567,21.668,21.668,0,0,1,1.3-16.671c3.586-6.629,10.541-10.568,16.735-14.851s12.406-10.079,12.931-17.6c.353-5.08-2-10.169-1.06-15.168a11.719,11.719,0,0,1,19.9-6.022c-3.513,4.98-7.009,10.133-8.431,16.055-1.449,6.031-.263,13.1,4.492,17.1,1.63,1.376,3.631,2.354,4.89,4.075,1.675,2.282,1.684,5.325,1.956,8.132.543,5.46,2.327,10.713,3.287,16.119S322.016,429.67,319.335,434.461Z" transform="translate(-238.907 -178.368)" fill="#2f2e41"/>
        <path id="Path_16" data-name="Path 16" d="M19.519,572.524l8.265,6.385,28.563-28.839-12.2-9.425Z" transform="translate(-2.948 -91.87)" fill="#FFBCBC"/>
        <path id="Path_17" data-name="Path 17" d="M251.385,706.039l13.667,9.315-4.325,5.6,5.792,18.175a4.418,4.418,0,0,1-6.911,4.838l-15.554-12.018,1.6-7.608-5.325,4.728-5.864-4.531Z" transform="translate(-234.462 -231.624)" fill="#2f2e41"/>
        <path id="Path_18" data-name="Path 18" d="M303.369,373.845a19.727,19.727,0,1,0,33.93-13.683l-.095-.095c-.158-.166-.316-.331-.481-.489l-.006,0a.008.008,0,0,1,0-.006c-.205-.189-.41-.379-.623-.56-3.472-3.046-8.352-6.352-13.331-6.352C311.864,352.659,303.369,362.948,303.369,373.845Z" transform="translate(-244.868 -178.255)" fill="#2f2e41"/>
        <path id="Path_19" data-name="Path 19" d="M424.234,364.5a7.226,7.226,0,0,1-7.825,7.845L367.56,416.446l-8.406-13.277,50.66-39.179a7.265,7.265,0,0,1,14.42.506Z" transform="translate(-253.293 -179.037)" fill="#FFBCBC"/>
        <path id="Path_21" data-name="Path 21" d="M78.424,342.225,77.4,347.1l-.869,17.985,38.275,2.1-1.189-27.661-3.71-6.1Z" transform="translate(-11.558 -60.576)" fill="#FFBCBC"/>
        <circle id="Ellipse_2" data-name="Ellipse 2" cx="16.542" cy="16.542" r="16.542" transform="translate(66.546 183.612)" fill="#FFBCBC"/>
        <path id="Path_23" data-name="Path 23" d="M349.4,376.372a56.4,56.4,0,0,1-5.995,3.305,34.5,34.5,0,0,1-6.538,2.364,22.6,22.6,0,0,0-2.354-4.012,14.586,14.586,0,0,1,.018,4.482,23.353,23.353,0,0,1-11.147-.915l-3.115-5.225-.235,5.832c-2.581.471-5.153.915-7.733,1.376-.154.018-.308.054-.453.082-1.6-7.226.67-15.186,5.723-20a18.206,18.206,0,0,1,19.125-3.713c.408.163.824.344,1.222.534a.008.008,0,0,0,0,.007.009.009,0,0,0,.006,0c.236.118.435.4.7.371C349.927,359.6,350.29,368.366,349.4,376.372Z" transform="translate(-246.072 -179.167)" fill="#2f2e41"/>
        <path id="Path_24" data-name="Path 24" d="M89.3,547.392l8.278,6.368,28.505-28.9-12.217-9.4Z" transform="translate(-13.486 -88.067)" fill="#FFBCBC"/>
        <path id="Path_25" data-name="Path 25" d="M322.038,681.594l13.686,9.287-4.314,5.606,5.829,18.163a4.419,4.419,0,0,1-6.9,4.852L314.76,707.516l1.582-7.611-5.315,4.738-5.873-4.519Z" transform="translate(-245.137 -227.932)" fill="#2f2e41"/>
        <path id="Path_26" data-name="Path 26" d="M288.731,624.118v-.108l3.923-6.76-4.006-8.8-.12-22.609.649-3.394a28.553,28.553,0,0,0-.74-13.718h0l-.073-13.762c-.141-3.448,5.2-6.479,3.955-9.354-11.772-27.166,12.021-47.891,12.182-48.057l.486-.506,2.638,2,2.511,0,33.884,6.174.245.456c1.333,2.5,3.9,11.116,4.057,15.015,1.689,1.955,20.925,24.214,22.635,25.76,11.555,10.455,18.171,27.76,21.086,37.145a14.9,14.9,0,0,1-2.552,13.7l-43.745,47.915-11.772-10.867,23.67-43.132-1.707-4.376a13.45,13.45,0,0,1-7.842-4.556L343.3,576.6a10.638,10.638,0,0,1-2.428-5.533l-2.907-.35-10.411-10.932-7.223,65.416-1.964,5.168-34.2,40.206-14.489-9.056Z" transform="translate(-239.78 -200.062)" fill="#2f2e41"/>
        <path id="Path_27" data-name="Path 27" d="M284.43,315.375a7.226,7.226,0,0,0,2.227,10.854l-10.875,32.195,8.88,34.118,14.319-6.473-8.836-25.734,6.611-37.458a7.265,7.265,0,0,0-12.326-7.5Z" transform="translate(-240.702 -172.204)" fill="#FFBCBC"/>
        <path id="Path_29" data-name="Path 29" d="M312.468,383.778a33.648,33.648,0,0,1,25.906-22.512c.024-.008.1-.039.205-.087.063-.039.142-.079.221-.118-.237-.134-.465-.252-.7-.371l-.006,0a.008.008,0,0,1,0-.006c-.205-.189-.41-.379-.623-.56l-.6.024S315.79,356.807,312.468,383.778Z" transform="translate(-246.242 -179.366)" fill="#fd6584"/>
        <path id="Path_31" data-name="Path 31" d="M370.2,338.711a18.881,18.881,0,0,1-18.716-16.836l-10.778-100.1a18.873,18.873,0,0,1,16.725-20.762l320.025-34.458a18.873,18.873,0,0,1,20.763,16.725L709,283.38a18.874,18.874,0,0,1-16.726,20.763l-.046-.422.046.422L372.251,338.6A19.114,19.114,0,0,1,370.2,338.711Z" transform="translate(-250.491 -150.133)" fill="#e6e6e6"/>
        <path id="Path_32" data-name="Path 32" d="M675.412,172.048a16.853,16.853,0,0,0-1.8.1L365.125,205.361a16.52,16.52,0,0,0-14.657,18.194l5.45,50.611a62.664,62.664,0,0,0,69.013,55.6l216.918-23.356a62.474,62.474,0,0,0,55.427-68.8l-5.47-50.8a16.524,16.524,0,0,0-16.394-14.754Z" transform="translate(-251.966 -150.979)" fill="#fff"/>
        <circle id="Ellipse_9" data-name="Ellipse 9" cx="6.792" cy="6.792" r="6.792" transform="translate(106.137 62.282)" fill="#3f3d56"/>
        <circle id="Ellipse_10" data-name="Ellipse 10" cx="6.792" cy="6.792" r="6.792" transform="translate(410.071 28.323)" fill="#3f3d56"/>
        <g id="Group_2" data-name="Group 2" transform="translate(31.77 66.216)">
          <path id="Path_20" data-name="Path 20" d="M343.2,434.438s1.817,3.357,8.026-1.826c4.97-4.15,28.783-22.165,33.913-29.547a5.677,5.677,0,0,0,6.683-1.941l-14.056-12.31c-4.206.484-4.115,3.309-3.677,4.913l-10.6,4.8-27.379,17.5,5.736,16.006Z" transform="translate(-281.583 -249.932)" fill="#f6c400"/>
          <path id="Path_22" data-name="Path 22" d="M297.719,447.831l-.1-13.75a21.884,21.884,0,0,1,16.947-21.33l.062-.015,3.271-4.407,13.289,1.329,2.436,4.978,9.63,5.734,3.708,11.918a14.1,14.1,0,0,1,6.091,9.44c1.259,8.04-4.371,16.085-5.04,17.007l-1.725,9.717-37.533,6.622-.3.039Z" transform="translate(-275.77 -252.879)" fill="#f6c400"/>
          <path id="Path_28" data-name="Path 28" d="M296.948,428.735s-3.363,1.806-5.7-5.936c-1.872-6.2-14.616-39.851-14.845-48.838a5.677,5.677,0,0,1-4.518-5.294l18.508-2.561c3.248,2.715,1.62,5.026.373,6.126l6.3,10.678,13.176,28.826L299.4,427.473Z" transform="translate(-271.884 -246.503)" fill="#f6c400"/>
          <path id="Path_33" data-name="Path 33" d="M625.3,232.751,452.883,251.316a3.773,3.773,0,0,1-.808-7.5l172.417-18.565a3.773,3.773,0,1,1,.808,7.5Z" transform="translate(-298.588 -225.227)" fill="#6387ff"/>
          <path id="Path_34" data-name="Path 34" d="M628.22,259.874,455.8,278.439a3.773,3.773,0,0,1-.808-7.5l172.417-18.565a3.773,3.773,0,1,1,.808,7.5Z" transform="translate(-299.029 -229.323)" fill="#6387ff"/>
          <path id="Path_35" data-name="Path 35" d="M478.816,306.315l-20.093,2.163a3.773,3.773,0,1,1-.808-7.5l20.093-2.164a3.773,3.773,0,1,1,.808,7.5Z" transform="translate(-299.47 -236.336)" fill="#6387ff"/>
          <path id="Path_36" data-name="Path 36" d="M616.07,352.692a5.592,5.592,0,0,1-1.9-4.411,74.423,74.423,0,0,0-4.78-28.93,5.592,5.592,0,0,1,.379-4.787,5.466,5.466,0,0,1,3.777-2.657c7.894-4.764,15.987-6.1,24.058-3.974a5.531,5.531,0,0,1,6.081,3.813,123.088,123.088,0,0,1,5.4,32.707,5.53,5.53,0,0,1-4.623,5.582l-23.885,3.946A5.465,5.465,0,0,1,616.07,352.692Z" transform="translate(-322.799 -237.569)" fill="#6387ff"/>
        </g>
        <path id="Path_37" data-name="Path 37" d="M619.557,325.933l20.1-3.321a1.273,1.273,0,0,0-.415-2.513l-20.1,3.321a1.273,1.273,0,0,0,.415,2.513Z" transform="translate(-292.396 -173.336)" fill="#fff"/>
        <path id="Path_38" data-name="Path 38" d="M621.514,337.772l20.1-3.321a1.273,1.273,0,1,0-.415-2.513l-20.1,3.321a1.273,1.273,0,0,0,.415,2.513Z" transform="translate(-292.692 -175.124)" fill="#fff"/>
        <path id="Path_39" data-name="Path 39" d="M623.47,349.612l20.1-3.321a1.273,1.273,0,1,0-.415-2.513l-20.1,3.321a1.273,1.273,0,1,0,.415,2.513Z" transform="translate(-292.987 -176.912)" fill="#fff"/>
      </g>
    </g>
  </g>
</svg>
