<svg xmlns="http://www.w3.org/2000/svg" width="748" height="530" viewBox="0 0 748 530">
  <g id="Group_89" data-name="Group 89" transform="translate(-586 -1420)">
    <rect id="Rectangle_29" data-name="Rectangle 29" width="748" height="530" transform="translate(586 1420)" fill="none"/>
    <g id="Group_71" data-name="Group 71" transform="translate(0 -32.924)">
      <g id="Group_70" data-name="Group 70">
        <g id="Group_69" data-name="Group 69">
          <g id="Group_67" data-name="Group 67" transform="translate(664.34 1495.076)">
            <path id="Path_281" data-name="Path 281" d="M440.982,231.337h-2.123V173.167A33.667,33.667,0,0,0,405.191,139.5H281.951a33.667,33.667,0,0,0-33.667,33.667V492.29a33.667,33.667,0,0,0,33.667,33.667H405.191a33.667,33.667,0,0,0,33.667-33.667V272.743h2.123Z" transform="translate(-208.07 -139.5)" fill="#3f3d56"/>
            <path id="Path_282" data-name="Path 282" d="M410.286,151.783H394.2a11.945,11.945,0,0,1-11.06,16.456h-70.6a11.945,11.945,0,0,1-11.059-16.456H286.453a25.142,25.142,0,0,0-25.142,25.142V495.579a25.142,25.142,0,0,0,25.142,25.142H410.286a25.142,25.142,0,0,0,25.142-25.142h0V176.925a25.142,25.142,0,0,0-25.142-25.142Z" transform="translate(-211.807 -143.024)" fill="#fff"/>
            <path id="Path_283" data-name="Path 283" d="M464.3,680.926h-271.7a.713.713,0,0,1,0-1.426H464.3a.713.713,0,0,1,0,1.426Z" transform="translate(-191.892 -294.414)" fill="#cbcbcb"/>
            <path id="Path_286" data-name="Path 286" d="M625.821,759.926h271.7a.713.713,0,1,0,0-1.426h-271.7a.713.713,0,1,0,0,1.426Z" transform="translate(-316.173 -317.078)" fill="#cbcbcb"/>
            <path id="Path_287" data-name="Path 287" d="M948.121,231.345a10.449,10.449,0,0,0-20.065-5.3l-22.048,25.276,6.469,18.068,22.173-29.534a10.392,10.392,0,0,0,13.47-8.514Z" transform="translate(-396.757 -162.432)" fill="#ffb7b7"/>
            <path id="Path_288" data-name="Path 288" d="M633.556,196.814l73.187-78.107-9.872-15.694-91.8,77.633Z" transform="translate(-173.583 -29.552)" fill="#3f3d56"/>
            <circle id="Ellipse_11" data-name="Ellipse 11" cx="25.672" cy="25.672" r="25.672" transform="translate(417.966 68.46)" fill="#2f2e41"/>
            <path id="Path_289" data-name="Path 289" d="M816.894,245.175a53.829,53.829,0,0,1,19.585-12.664c4.734-1.754,9.887-2.837,14.836-1.841s9.63,4.42,11.011,9.276c1.129,3.971-.037,8.246-1.789,11.984s-4.092,7.2-5.509,11.082a25.293,25.293,0,0,0,25.451,33.918c-4.863.652-9.346,2.937-14.1,4.154s-10.364,1.134-13.9-2.271c-3.737-3.6-3.812-9.461-3.632-14.649q.4-11.569.806-23.137c.137-3.933.254-7.992-1.165-11.663s-4.789-6.886-8.725-6.852c-2.983.025-5.623,1.832-8.014,3.614s-4.924,3.683-7.895,3.948-6.363-1.934-6.141-4.908Z" transform="translate(-371.192 -165.545)" fill="#2f2e41"/>
            <path id="Path_290" data-name="Path 290" d="M671.94,495.377a10.449,10.449,0,0,1-7.872-19.2l22.178-25.161L705,455.067l-26.384,25.842a10.392,10.392,0,0,1-6.681,14.467Z" transform="translate(-325.807 -228.867)" fill="#ffb7b7"/>
            <path id="Path_291" data-name="Path 291" d="M558.682,231.514,503.4,300.9l-16.85-7.736,64.972-101.153Z" transform="translate(-139.582 -55.084)" fill="#3f3d56"/>
            <path id="Path_292" data-name="Path 292" d="M520.548,541.128l-13.174-.207,1.585,44.9h11.587Z" transform="translate(-145.555 -155.179)" fill="#ffb7b7"/>
            <path id="Path_293" data-name="Path 293" d="M706.851,738.082H684.029a14.544,14.544,0,0,0-14.543,14.542v.473H706.85Z" transform="translate(-328.904 -311.22)" fill="#2f2e41"/>
            <path id="Path_294" data-name="Path 294" d="M642.375,524.511l-14.391,9.239,28.787,34.633,9.751-6.26Z" transform="translate(-180.155 -150.471)" fill="#ffb7b7"/>
            <path id="Path_295" data-name="Path 295" d="M864.124,710.049l-19.2,12.329h0a14.544,14.544,0,0,0-4.38,20.1l.255.4,31.442-20.186Z" transform="translate(-377.314 -303.178)" fill="#2f2e41"/>
            <path id="Path_296" data-name="Path 296" d="M801.914,428.418s-31.976-106.2-42.252-107.639-26.833,27.251-26.833,27.251c-21.467,27.39-43.6,116.111-43.6,116.111s36.9,2.309,63.877,16.661,58.809-.727,58.809-.727Z" transform="translate(-334.566 -191.49)" fill="#3f3d56"/>
            <path id="Path_297" data-name="Path 297" d="M801.914,428.418s-31.976-106.2-42.252-107.639-22.628,27.542-22.628,27.542c-10.7,44.214-47.808,115.82-47.808,115.82s36.9,2.309,63.877,16.661,58.809-.727,58.809-.727Z" transform="translate(-334.566 -191.49)" opacity="0.1"/>
            <path id="Path_298" data-name="Path 298" d="M584.947,284.7V338.07l6.28,77.305L622.6,473.851l-14.976,10.7-42.787-55.624-16.923-55.23L521.341,495.958l-19.967-1.426,13.867-169.517L541.556,277.3Z" transform="translate(-143.833 -79.551)" fill="#2f2e41"/>
            <path id="Path_299" data-name="Path 299" d="M760.373,345.046c-9.984,9.984-.713,20.681-.713,20.681L748.25,391.4l44.927,12.123,15.7-70.156-10.7-11.41c-21.394-.713-21.405-1.156-21.405-1.156C773.027,324.468,760.373,345.046,760.373,345.046Z" transform="translate(-351.499 -191.511)" fill="#6387ff"/>
            <path id="Path_300" data-name="Path 300" d="M819.189,326.723a19.172,19.172,0,0,0-26.94,4.217c-11.294,15.726-21.738,41.119-7.348,72.79,23.1,50.852,43.21,76.884,51.384,76.882a3.251,3.251,0,0,0,1.051-.165c5.031-1.707,12.306-10.22,13.622-17.723.471-2.685.359-6.426-2.852-8.994-9.225-7.378-25.785-30.352-30.951-60.59-2.855-16.708,2.682-31.928,7.829-41.753a19.168,19.168,0,0,0-5.546-24.481h0Z" transform="translate(-360.002 -192.135)" fill="#3f3d56"/>
            <circle id="Ellipse_12" data-name="Ellipse 12" cx="18.898" cy="18.898" r="18.898" transform="translate(410.245 93.183) rotate(-28.663)" fill="#ffb7b7"/>
            <path id="Path_301" data-name="Path 301" d="M765.872,270.35H793.16l.28-3.918,1.4,3.918h4.2l.555-7.765,2.773,7.765h8.13v-.385a20.413,20.413,0,0,0-20.39-20.39h-3.847a20.413,20.413,0,0,0-20.39,20.39Z" transform="translate(-356.555 -171.078)" fill="#2f2e41"/>
            <path id="Path_302" data-name="Path 302" d="M818.506,285.558l11.645-3.778V253.5h-22l.545.544C816.277,261.61,824.7,288.457,818.506,285.558Z" transform="translate(-368.685 -172.204)" fill="#2f2e41"/>
          </g>
          <path id="Path_303" data-name="Path 303" d="M0,264.346V332.2H.332L330.613,0h-68.13Z" transform="translate(820.429 1524.134)" fill="#2f2e41" opacity="0.1"/>
          <path id="Path_304" data-name="Path 304" d="M175.255,0,0,175.619v67.9L242.974,0Z" transform="translate(820.432 1524.137)" fill="#2f2e41" opacity="0.1"/>
        </g>
        <circle id="Ellipse_44" data-name="Ellipse 44" cx="60.22" cy="60.22" r="60.22" transform="translate(737.683 1621.147)" fill="#6387ff"/>
      </g>
      <path id="Path_395" data-name="Path 395" d="M366.8,414.522a6.246,6.246,0,0,1-3.757-1.249l-.067-.05L348.824,402.4a6.289,6.289,0,1,1,7.653-9.983l9.167,7.03,21.662-28.26a6.287,6.287,0,0,1,8.814-1.164h0l-.134.187.138-.187a6.294,6.294,0,0,1,1.163,8.816l-25.479,33.226a6.29,6.29,0,0,1-5,2.453Z" transform="translate(425.134 1289.817)" fill="#fff"/>
    </g>
  </g>
</svg>
