<svg id="Group_97" data-name="Group 97" xmlns="http://www.w3.org/2000/svg" width="750" height="530" viewBox="0 0 750 530">
  <rect id="Rectangle_57" data-name="Rectangle 57" width="750" height="530" fill="none"/>
  <g id="Group_96" data-name="Group 96" transform="translate(60.494 72)">
    <path id="Path_386" data-name="Path 386" d="M150.738,107.121,174.527,139.6s20.282,8.529,43.987,25.653l-5.674,8.858s-39.127-16.022-49.139-22.791l-18.284-28.664,5.321-15.531Z" transform="translate(-17.263 -12.717)" fill="#a0616a"/>
    <ellipse id="Ellipse_19" data-name="Ellipse 19" cx="7.286" cy="12.271" rx="7.286" ry="12.271" transform="translate(191.105 160.431) rotate(-55.653)" fill="#a0616a"/>
    <path id="Path_387" data-name="Path 387" d="M138.261,75.366l7.785-2.208a8.733,8.733,0,0,1,7.088,4.46c2.557,4.451,20.658,44.139,19.8,45.676s-2.056,1.877-.518,2.735,2.945.423,1.9,1.709.4,4.11.4,4.11l-19.97,14.734L138.261,75.366Z" transform="translate(-16.413 -8.685)" fill="#f6c400"/>
    <path id="Path_388" data-name="Path 388" d="M103.988,441.033h9.5L118,404.4H103.986Z" transform="translate(-12.345 -48.007)" fill="#a0616a"/>
    <path id="Path_389" data-name="Path 389" d="M136.233,444.281h0a8.155,8.155,0,0,1,.452,2.685h0a3.224,3.224,0,0,1-3.224,3.224H104.047a2.2,2.2,0,0,1-2.2-2.2v-1.225s-1.455-3.681,1.541-8.217c0,0,3.723,3.552,9.287-2.011l1.641-2.972,11.876,8.686,6.583.81c1.44.177,2.717-.028,3.458,1.22Z" transform="translate(-12.049 -51.47)" fill="#2f2e41"/>
    <path id="Path_390" data-name="Path 390" d="M142.995,430.6l9.366,1.572,10.525-35.38-13.824-2.321Z" transform="translate(-16.975 -46.829)" fill="#a0616a"/>
    <path id="Path_391" data-name="Path 391" d="M174.794,439.429h0a8.155,8.155,0,0,1,0,2.723h0a3.224,3.224,0,0,1-3.713,2.645l-29.007-4.873a2.2,2.2,0,0,1-1.8-2.533l.2-1.208s-.825-3.871,2.881-7.848c0,0,3.083,4.12,9.492-.445l2.11-2.659,10.273,10.533,6.358,1.89c1.391.413,2.684.423,3.208,1.776Z" transform="translate(-16.648 -50.48)" fill="#2f2e41"/>
    <path id="Path_392" data-name="Path 392" d="M155.335,222.162S168.1,237.1,168.1,250.8s.311,56.715.311,56.715-7.47,67.16-9.337,72.762-2.8,14.94-2.8,14.94l-18.052-4.357s-2.49-63.182,4.98-78.122L125.144,261.69l-6.225,144.417H97.963s-10.791-75.943-5.188-95.863c0,0-12.45-75.943-9.337-80.3s71.9-7.781,71.9-7.781Z" transform="translate(-9.846 -26.373)" fill="#2f2e41"/>
    <path id="Path_393" data-name="Path 393" d="M108.021,53.348l16.807,1.245,5.6,9.337s13.072,5.6,14.94,13.695,2.49,102.71,2.49,102.71L157.2,194.03l-.622,11.827-74.7,3.735V198.22l-6.847-13.528S82.5,76.38,84.366,75.757s16.185-10.582,16.185-10.582l7.47-11.827Z" transform="translate(-8.907 -6.333)" fill="#f6c400"/>
    <circle id="Ellipse_20" data-name="Ellipse 20" cx="21.165" cy="21.165" r="21.165" transform="translate(85.556 2.369)" fill="#a0616a"/>
    <path id="Path_394" data-name="Path 394" d="M134.454,6.561a7.441,7.441,0,0,0-7.3-4.835c-.137,0-.274,0-.41,0a30.532,30.532,0,0,1-4.795-.95,17.226,17.226,0,0,0-9,.584,8.6,8.6,0,0,1-2.735.694A2.209,2.209,0,0,1,108.009.615q-.082,1.245-.164,2.49l-.923-2.015-.616,2.679-1.974-2.239a2.881,2.881,0,0,1-1.178,2.613,10.854,10.854,0,0,1-2.664,1.373c-3.981,1.7-7.718,4.7-8.865,8.874-.725,2.636-.346,5.434.038,8.141.339,2.393.708,4.869,2.009,6.906.834,1.306,2.036,2.4,2.543,3.869.473,1.364.294,2.927.967,4.2a5.931,5.931,0,0,0,3.438,2.5,15.5,15.5,0,0,1,3.995,1.681c1.176.849,2.542,3.293,5.1,3.162l.827-1.554c.851-.693-2.3-.144-2.331-1.241s3.79-1.775,3.248-2.73c-.831-1.464-1.955-2.738-2.891-4.137A7.6,7.6,0,0,1,107,29.64a4.035,4.035,0,0,1,1.064-2.075c1.6-1.627,3.377-.912,5.107-.679,1.192.161,2.617-.025,3.236-1.057.724-1.207-.083-2.743.016-4.147a5.082,5.082,0,0,1,2.459-3.556,33.76,33.76,0,0,0,3.724-2.47,3.953,3.953,0,0,0,1.409-3.983c5.231-2.178,6.032-2.384,11.541-1.056a27.942,27.942,0,0,0-1.1-4.058Z" transform="translate(-10.828 -0.051)" fill="#2f2e41"/>
    <g id="Group_93" data-name="Group 93" transform="translate(34.276 205.718)">
      <path id="Path_395" data-name="Path 395" d="M38.894,304.914V240.672a6.226,6.226,0,0,1,6.878-6.191c16.235-2.184,31.526-1.145,45.384,4.786A2.85,2.85,0,0,1,94,242.113v64.466a2.85,2.85,0,0,1-2.847,2.847c-15.254-3.578-31.344-2.646-47.751,0a4.517,4.517,0,0,1-4.512-4.512Z" transform="translate(-38.894 -233.429)" fill="#e6e6e6"/>
      <path id="Path_396" data-name="Path 396" d="M38.894,311.038V246.117a6.233,6.233,0,0,1,6.226-6.226,88.407,88.407,0,0,1,46.037,0A2.85,2.85,0,0,1,94,242.738v63.806a2.85,2.85,0,0,1-2.84,2.847c-14.954-2.6-30.973-.068-47.758,6.159a4.517,4.517,0,0,1-4.512-4.512Z" transform="translate(-38.894 -233.834)" fill="#f2f2f2"/>
      <path id="Path_397" data-name="Path 397" d="M76.343,268.2H61.826a9.455,9.455,0,0,1,0-18.911H76.343a9.455,9.455,0,1,1,0,18.911Z" transform="translate(-40.493 -235.311)" fill="#e6e6e6"/>
    </g>
    <path id="Path_398" data-name="Path 398" d="M92.349,126.057l-.555,33.517S90.02,185.7,85.616,215.092l-10.5.67s1.292-45.9.821-57.976l.742-26.825,15.668-4.9Z" transform="translate(-8.917 -14.965)" fill="#a0616a"/>
    <ellipse id="Ellipse_21" data-name="Ellipse 21" cx="7.286" cy="12.271" rx="7.286" ry="12.271" transform="matrix(0.999, -0.034, 0.034, 0.999, 64.325, 196.622)" fill="#a0616a"/>
    <path id="Path_399" data-name="Path 399" d="M91.63,77.637l-8.087.295a8.733,8.733,0,0,0-5.372,6.425c-1.063,5.022-8.514,56.994-7.224,58.193s2.534,1.154,1.335,2.443S69.609,146.3,71,147.2s.884,4.034.884,4.034l22.367-1.585L91.63,77.637Z" transform="translate(-8.362 -9.217)" fill="#f6c400"/>
    <path id="Path_400" data-name="Path 400" d="M645.459,367.874H430.291a12.177,12.177,0,0,1-3.674-.567l-.126-.051C359.116,333.772,301.351,315.5,249.9,311.386l-.2-.039a12.139,12.139,0,0,1-8.51-11.618V12.2A12.185,12.185,0,0,1,257.049.578l170.1,53.8a10.407,10.407,0,0,0,3.143.485H645.459a12.2,12.2,0,0,1,12.185,12.185V355.689a12.2,12.2,0,0,1-12.185,12.185Zm-218.247-2.227a10.431,10.431,0,0,0,3.079.465H645.459a10.434,10.434,0,0,0,10.422-10.422V67.051a10.434,10.434,0,0,0-10.422-10.422H430.291a12.174,12.174,0,0,1-3.674-.567l-170.1-53.8A10.422,10.422,0,0,0,242.952,12.2V299.73a10.384,10.384,0,0,0,7.186,9.908C301.78,313.783,359.7,332.1,427.211,365.647Z" transform="translate(-28.632 0)" fill="#3f3d56"/>
    <path id="Path_401" data-name="Path 401" d="M437.5,355.844c58.667-20.76,124.117-18.377,193.647-2.07a13.886,13.886,0,0,0,17.1-13.491V77.56A13.865,13.865,0,0,0,637.7,64.086c-73.348-17.936-141.86-21.236-202.237.077A13.942,13.942,0,0,1,422.4,62.038C371.518,23.309,319.448,3.89,265.822,9.656a13.842,13.842,0,0,0-12.306,13.788V289.033a13.874,13.874,0,0,0,12.454,13.793c57.719,6,110.757,24.2,160.081,52.057a13.863,13.863,0,0,0,11.449.961Z" transform="translate(-30.096 -1.028)" fill="#f2f2f2"/>
    <path id="Path_402" data-name="Path 402" d="M437.862,343.022a21.555,21.555,0,0,1-11.4-3.251c-41.424-25.727-86.555-40.756-134.139-44.67a21.83,21.83,0,0,1-19.894-21.663V46.581a21.625,21.625,0,0,1,20.558-21.72c34.644-1.615,76.709,13.834,132.374,48.6a20,20,0,0,0,15.71,2.4c52.9-14.2,110.247-14.615,175.316-1.268a21.864,21.864,0,0,1,17.434,21.32V317.348a21.77,21.77,0,0,1-26.883,21.129c-61.554-14.651-114.41-13.592-161.592,3.239h0a22.26,22.26,0,0,1-7.485,1.306ZM297.934,26.51c-1.64,0-3.257.037-4.864.112a19.864,19.864,0,0,0-18.877,19.959V273.437a20.056,20.056,0,0,0,18.276,19.906c47.864,3.938,93.26,19.054,134.924,44.93a19.992,19.992,0,0,0,17.362,1.783l.3.83-.3-.83c47.511-16.949,100.7-18.027,162.592-3.294a20.008,20.008,0,0,0,24.712-19.415V95.914a20.1,20.1,0,0,0-16.026-19.594c-64.793-13.292-121.874-12.884-174.5,1.244a21.762,21.762,0,0,1-17.1-2.606C371.676,42.009,331.28,26.51,297.934,26.51Z" transform="translate(-32.341 -2.938)" fill="#fff"/>
    <rect id="Rectangle_58" data-name="Rectangle 58" width="1.763" height="265.435" transform="matrix(1, -0.009, 0.009, 1, 399.757, 74.258)" fill="#fff"/>
    <rect id="Rectangle_59" data-name="Rectangle 59" width="1.762" height="129.99" transform="matrix(0.314, -0.949, 0.949, 0.314, 256.717, 58.398)" fill="#3f3d56"/>
    <rect id="Rectangle_60" data-name="Rectangle 60" width="1.762" height="129.99" transform="matrix(0.314, -0.949, 0.949, 0.314, 256.717, 91.066)" fill="#3f3d56"/>
    <rect id="Rectangle_61" data-name="Rectangle 61" width="1.762" height="129.99" transform="matrix(0.314, -0.949, 0.949, 0.314, 256.717, 123.733)" fill="#3f3d56"/>
    <rect id="Rectangle_62" data-name="Rectangle 62" width="1.762" height="129.99" transform="matrix(0.314, -0.949, 0.949, 0.314, 256.717, 156.399)" fill="#3f3d56"/>
    <rect id="Rectangle_63" data-name="Rectangle 63" width="147.909" height="1.763" transform="translate(431.22 99.33)" fill="#3f3d56"/>
    <rect id="Rectangle_64" data-name="Rectangle 64" width="147.909" height="1.763" transform="translate(431.22 130.182)" fill="#3f3d56"/>
    <rect id="Rectangle_65" data-name="Rectangle 65" width="147.909" height="1.763" transform="translate(431.22 161.034)" fill="#3f3d56"/>
    <rect id="Rectangle_66" data-name="Rectangle 66" width="147.909" height="1.763" transform="translate(431.22 191.887)" fill="#3f3d56"/>
    <rect id="Rectangle_67" data-name="Rectangle 67" width="147.909" height="1.763" transform="translate(431.22 222.739)" fill="#3f3d56"/>
    <rect id="Rectangle_68" data-name="Rectangle 68" width="147.909" height="1.763" transform="translate(431.22 253.591)" fill="#3f3d56"/>
    <path id="Path_404" data-name="Path 404" d="M225.459,453.547a1.046,1.046,0,0,1-1.049,1.049H1.189a1.049,1.049,0,0,1,0-2.1H224.41a1.046,1.046,0,0,1,1.049,1.049Z" transform="translate(-0.017 -53.717)" fill="#ccc"/>
    <g id="Group_94" data-name="Group 94" transform="translate(565.072 303.54)">
      <circle id="Ellipse_22" data-name="Ellipse 22" cx="20.27" cy="20.27" r="20.27" fill="#6c63ff"/>
      <path id="Path_405" data-name="Path 405" d="M672.462,365.568l-12.577-7.262a.881.881,0,0,0-1.322.763v6.381h-3.773a.881.881,0,0,0,0,1.763h3.773v6.381a.881.881,0,0,0,1.322.763l12.577-7.262A.881.881,0,0,0,672.462,365.568Z" transform="translate(-642.7 -346.061)" fill="#fff"/>
    </g>
    <g id="Group_95" data-name="Group 95" transform="translate(296.697 221.149)">
      <path id="Path_406" data-name="Path 406" d="M336.667,297.422a42.718,42.718,0,0,1,10.542-24.453,42.13,42.13,0,0,1,37.123-13.54c1.166.166,1.135,2.018-.043,1.85a40.823,40.823,0,0,0-24.313,4.091,40.287,40.287,0,0,0-21.458,32.095c-.1,1.182-1.954,1.146-1.85-.043h0Z" transform="translate(-336.663 -251.898)" fill="#fff"/>
      <path id="Path_407" data-name="Path 407" d="M388.235,251.043l14.244,7.027a.93.93,0,0,1,.163,1.463L389.158,270.68c-.913.754-2.2-.579-1.277-1.339l13.484-11.146.163,1.463-14.244-7.027c-1.07-.528-.11-2.111.951-1.588h0Z" transform="translate(-342.617 -250.938)" fill="#fff"/>
    </g>
  </g>
</svg>
