<svg id="Group_91" data-name="Group 91" xmlns="http://www.w3.org/2000/svg" width="750" height="530" viewBox="0 0 750 530">
  <g id="Group_90" data-name="Group 90" transform="translate(108.151 71)">
    <path id="Path_324" data-name="Path 324" d="M552.924,621.133h-7.8l-3.709-30.069h11.506Z" transform="translate(-228.652 -249.617)" fill="#9e616a"/>
    <path id="Path_325" data-name="Path 325" d="M700.047,746H674.91v-.318a9.784,9.784,0,0,1,9.783-9.784h15.354Z" transform="translate(-373.786 -366.926)" fill="#2f2e41"/>
    <path id="Path_326" data-name="Path 326" d="M504.493,621.133h-7.8l-3.709-30.069h11.506Z" transform="translate(-208.198 -249.617)" fill="#9e616a"/>
    <path id="Path_327" data-name="Path 327" d="M651.614,746H626.477v-.318a9.784,9.784,0,0,1,9.783-9.784h15.354Z" transform="translate(-353.332 -366.926)" fill="#2f2e41"/>
    <path id="Path_328" data-name="Path 328" d="M508.339,367.077a7.247,7.247,0,0,0,11.086.76l15.425,6.024,5.947-8.481-21.9-8.2a7.286,7.286,0,0,0-10.555,9.9Z" transform="translate(-302.84 -206.264)" fill="#9e616a"/>
    <path id="Path_329" data-name="Path 329" d="M497.885,367.331l-20.31,6.625,6.784,143.833,15.675.388,8.022-101.433,1.821,101.033,19.381,1.068L536.4,367.331Z" transform="translate(-201.689 -155.131)" fill="#2f2e41"/>
    <path id="Path_330" data-name="Path 330" d="M637.827,309.465l52.126-11.326,5.8,44.883-4.827,21.446,1.933,32.591s-41.217,20.514-61.636,3.818c0,0,16.411-43.106,6.9-63.285Z" transform="translate(-355.335 -182.053)" fill="#e4e4e4"/>
    <path id="Path_331" data-name="Path 331" d="M607.156,324.083l-9.027-6.349s-.533-.739-8.056,8.056-22.784,22.784-22.784,22.784l-25.435-9.538-4.634,17.121,29.561,13.776,41.851-27.95Z" transform="translate(-315.637 -190.322)" fill="#e4e4e4"/>
    <path id="Path_332" data-name="Path 332" d="M730.3,474.956a7.247,7.247,0,0,0,2.812-10.75l8.792-14.033-7.225-7.423L722.54,462.742a7.286,7.286,0,0,0,7.759,12.214Z" transform="translate(-392.768 -243.125)" fill="#9e616a"/>
    <path id="Path_333" data-name="Path 333" d="M718.816,306.8l8.13-8.842s9.059-3.155,16.46,13.147,15.668,49.367,15.668,49.367L739.746,397.7,724.737,391l15.01-30.785-15.884-22.8Z" transform="translate(-392.328 -181.874)" fill="#e4e4e4"/>
    <circle id="Ellipse_14" data-name="Ellipse 14" cx="16.92" cy="16.92" r="16.92" transform="translate(281.621 90.827) rotate(-28.663)" fill="#9e616a"/>
    <path id="Path_334" data-name="Path 334" d="M680.238,233.817a10.891,10.891,0,0,0-6.824-7.255,19.429,19.429,0,0,0-10.216-.653c-5.652.96-10.93,3.4-16.131,5.811l4.008,1.918-5.531.317,4.274,2.21a7.5,7.5,0,0,0-2.777,7.6c.22.916.808,1.926,1.75,1.957,1.138.038,1.732-1.288,2.529-2.1a4.969,4.969,0,0,1,4.235-1.119c1.5.2,2.925.782,4.406,1.1a13.2,13.2,0,0,0,10.793-2.5l5.33,12.835a3.157,3.157,0,1,1,6,1.012c2.307-3.48,4.164-7.434,4.227-11.609s-2.007-8.573-5.8-10.325" transform="translate(-361.385 -151.389)" fill="#2f2e41"/>
    <path id="Path_335" data-name="Path 335" d="M339.924,674.471,332.717,685.8l4.2-14.751c-8.864-9.249-21.135-16.015-21.135-16.015s-15.11,24.833-11.043,40.109,14.568,18.192,25.77,15.209,18.863-10.734,14.8-26.009A27.731,27.731,0,0,0,339.924,674.471Z" transform="translate(-217.161 -332.777)" fill="#f2f2f2"/>
    <path id="Path_336" data-name="Path 336" d="M338.761,686.2l.2.753c2.285,8.764,2.627,15.986,1.011,21.565-.022.082-.049.161-.071.242l-.377-.111-.361-.111c1.831-6.048,1.014-13.69-.978-21.335-.062-.247-.125-.5-.195-.747-.872-3.229-1.939-6.445-3.1-9.537-.088-.24-.18-.483-.273-.726-1.555-4.073-3.255-7.907-4.829-11.212-.11-.234-.224-.467-.337-.7-2.688-5.583-4.967-9.539-5.479-10.413-.061-.108-.1-.166-.1-.18l.327-.195,0,0,.331-.2c.008.014.128.209.337.577.792,1.37,2.895,5.1,5.32,10.116.108.227.222.46.332.694,1.281,2.681,2.638,5.7,3.929,8.9q.488,1.205.935,2.386c.1.242.189.485.277.725Q337.544,681.7,338.761,686.2Z" transform="translate(-225.534 -332.041)" fill="#fff"/>
    <path id="Path_337" data-name="Path 337" d="M325.818,669.487c-.241.1-.485.2-.736.3a21.278,21.278,0,0,1-2.074.668,20.7,20.7,0,0,1-9.168.349l-.315.722a21.468,21.468,0,0,0,9.681-.326,22,22,0,0,0,2.212-.717c.246-.094.491-.195.731-.3a21.287,21.287,0,0,0,5.466-3.383l-.63-.479A20.627,20.627,0,0,1,325.818,669.487Z" transform="translate(-221.167 -337.542)" fill="#fff"/>
    <path id="Path_338" data-name="Path 338" d="M329.126,687.668q-.38.125-.766.228c-.077.025-.159.046-.238.067a20.81,20.81,0,0,1-18.8-4.228c-.091.26-.181.519-.267.781a21.583,21.583,0,0,0,19.266,4.192c.1-.028.209-.056.312-.087.26-.073.515-.149.769-.229a21.468,21.468,0,0,0,10.02-6.819c-.178-.188-.356-.376-.537-.563A20.666,20.666,0,0,1,329.126,687.668Z" transform="translate(-219.278 -343.747)" fill="#fff"/>
    <path id="Path_339" data-name="Path 339" d="M331.334,702.664c-.255.092-.512.176-.77.257-.277.086-.554.167-.834.242a20.866,20.866,0,0,1-23.193-9.361c-.087.347-.176.689-.256,1.034a21.63,21.63,0,0,0,23.647,9.073c.28-.074.558-.153.83-.241s.52-.162.776-.25A21.567,21.567,0,0,0,343.5,693.042c-.152-.255-.314-.5-.477-.755A20.8,20.8,0,0,1,331.334,702.664Z" transform="translate(-218.107 -348.509)" fill="#fff"/>
    <path id="Path_340" data-name="Path 340" d="M826.969,676.723l-7.1,11.167L824,673.353c-8.735-9.115-20.828-15.782-20.828-15.782s-14.89,24.472-10.883,39.526,14.356,17.927,25.4,14.988,18.589-10.578,14.581-25.631A27.318,27.318,0,0,0,826.969,676.723Z" transform="translate(-423.07 -333.848)" fill="#f2f2f2"/>
    <path id="Path_341" data-name="Path 341" d="M825.823,688.278l.2.742c2.252,8.637,2.589,15.754,1,21.252-.022.081-.048.158-.07.239l-.371-.11-.356-.11c1.8-5.96,1-13.491-.964-21.025-.061-.243-.123-.491-.192-.736-.859-3.182-1.911-6.352-3.057-9.4-.087-.237-.178-.476-.269-.715-1.533-4.013-3.207-7.792-4.759-11.049-.109-.231-.221-.46-.332-.687-2.649-5.5-4.894-9.4-5.4-10.261-.06-.106-.095-.164-.1-.177l.323-.192,0,0,.326-.193c.008.014.126.206.332.568.78,1.35,2.853,5.027,5.242,9.969.107.223.219.453.328.684,1.262,2.642,2.6,5.614,3.872,8.768q.481,1.188.921,2.351c.095.238.186.478.273.714Q824.624,683.847,825.823,688.278Z" transform="translate(-431.321 -333.122)" fill="#fff"/>
    <path id="Path_342" data-name="Path 342" d="M813.069,671.811c-.237.1-.478.2-.725.291a20.97,20.97,0,0,1-2.043.658,20.4,20.4,0,0,1-9.035.344c-.1.236-.2.471-.31.712a21.154,21.154,0,0,0,9.54-.321,21.711,21.711,0,0,0,2.18-.706c.243-.092.484-.192.72-.294a20.976,20.976,0,0,0,5.387-3.334l-.621-.472A20.327,20.327,0,0,1,813.069,671.811Z" transform="translate(-427.017 -338.543)" fill="#fff"/>
    <path id="Path_343" data-name="Path 343" d="M816.328,689.728q-.374.123-.755.224c-.076.024-.157.046-.234.066a20.507,20.507,0,0,1-18.528-4.166c-.089.256-.178.512-.263.77a21.269,21.269,0,0,0,18.986,4.13c.1-.027.206-.055.308-.086.256-.072.508-.147.758-.225a21.157,21.157,0,0,0,9.875-6.72c-.175-.185-.351-.371-.529-.555a20.366,20.366,0,0,1-9.618,6.561Z" transform="translate(-425.156 -344.658)" fill="#fff"/>
    <path id="Path_344" data-name="Path 344" d="M818.5,704.506c-.251.091-.5.174-.759.253-.273.084-.546.165-.822.238a20.563,20.563,0,0,1-22.856-9.225c-.086.342-.173.679-.252,1.019a21.316,21.316,0,0,0,23.3,8.941c.276-.073.55-.15.818-.237s.512-.16.764-.247A21.254,21.254,0,0,0,830.5,695.023c-.15-.251-.309-.5-.47-.744A20.5,20.5,0,0,1,818.5,704.506Z" transform="translate(-424.002 -349.35)" fill="#fff"/>
    <path id="Path_345" data-name="Path 345" d="M537.54,175.128c0-26.711-18.622-48.364-41.593-48.364s-41.593,21.653-41.593,48.364c0,24.225,15.318,44.29,35.306,47.814V227.5a3.246,3.246,0,0,0,3.246,3.246h6.082a3.246,3.246,0,0,0,3.246-3.246v-4.558C522.222,219.418,537.54,199.354,537.54,175.128Z" transform="translate(-280.641 -109.678)" fill="#ef7835"/>
    <path id="Path_346" data-name="Path 346" d="M511.9,296.292a12.373,12.373,0,0,1,9.809-3.281,11.628,11.628,0,0,1,8.692,5.668,12.141,12.141,0,0,1,1.123,10.137c-1.093,3.331-3.417,6.1-5.8,8.6-2.5,2.621-5.218,5.038-7.567,7.8a36.772,36.772,0,0,0,4.71,52.361q1.12.915,2.307,1.744c.916.641,1.783-.861.875-1.5a35.074,35.074,0,0,1-5.823-52.342c2.479-2.737,5.254-5.187,7.732-7.924a22.559,22.559,0,0,0,5.465-9.046A13.825,13.825,0,0,0,532,297.986a13.443,13.443,0,0,0-8.614-6.446,14.259,14.259,0,0,0-10.565,1.829,13.658,13.658,0,0,0-2.15,1.7c-.8.775.422,2,1.225,1.225Z" transform="translate(-303.88 -179.129)" fill="#3f3d56"/>
    <path id="Path_347" data-name="Path 347" d="M250.267,148.556c-12.727-29.256-43.44-44.1-68.6-33.156s-35.24,43.534-22.514,72.791c11.542,26.534,37.88,41.213,61.452,35.549l2.172,4.992a3.878,3.878,0,0,0,5.1,2.009l6.661-2.9a3.878,3.878,0,0,0,2.009-5.1l-2.172-4.992C254.592,204.365,261.81,175.09,250.267,148.556Z" transform="translate(-153.646 -103.358)" fill="#d83548"/>
    <path id="Path_348" data-name="Path 348" d="M269.384,305.77a14.826,14.826,0,0,1,8.881-8.152,14,14,0,0,1,11.737,1.3,14.685,14.685,0,0,1,6.946,9.913c.888,4.754-.553,9.6-2.191,14.021-1.717,4.639-3.856,9.145-5.05,13.963A43.789,43.789,0,0,0,320.4,389.6c1.025.289,2.06.535,3.1.747,1.089.22,1.555-1.45.461-1.671a42.814,42.814,0,0,1-22.668-12.723,41.807,41.807,0,0,1-11-25.275,42.272,42.272,0,0,1,1.294-14.21c1.317-4.885,3.546-9.458,5.226-14.218,1.6-4.542,2.74-9.419,1.732-14.225a16.349,16.349,0,0,0-7.14-10.263,15.794,15.794,0,0,0-11.979-2.263,16.855,16.855,0,0,0-10.243,7,15.919,15.919,0,0,0-1.474,2.811c-.426,1.029,1.25,1.478,1.671.461Z" transform="translate(-201.789 -180.791)" fill="#3f3d56"/>
    <path id="Path_349" data-name="Path 349" d="M782.651,663.61h9.342l4.443-36.032H782.649Z" transform="translate(-330.528 -265.038)" fill="#ffb6b6"/>
    <path id="Path_350" data-name="Path 350" d="M932.173,781.858h18.4a11.724,11.724,0,0,1,11.724,11.723v.382H932.174Z" transform="translate(-482.433 -386.337)" fill="#2f2e41"/>
    <path id="Path_351" data-name="Path 351" d="M686.94,651.086l8.907,2.817,15.1-33.013-13.145-4.158Z" transform="translate(-290.108 -260.458)" fill="#ffb6b6"/>
    <path id="Path_352" data-name="Path 352" d="M835.577,767.11l17.54,5.548h0a11.724,11.724,0,0,1,7.642,14.714l-.115.363-28.718-9.084Z" transform="translate(-440.097 -380.108)" fill="#2f2e41"/>
    <path id="Path_353" data-name="Path 353" d="M862.352,502.275,857.168,516.9l-.147,78.929-14.7,54.04,18.046,5.036L880.3,603.946l6.394-44.756,8.425,45.016-1.16,53.505h18.934l1.429-82.452a180.779,180.779,0,0,0-11.935-67.8h0Z" transform="translate(-444.487 -268.263)" fill="#2f2e41"/>
    <path id="Path_354" data-name="Path 354" d="M702.532,302.57h30.6l12.788,12.788,3.82,52.858-46.221,7.438L688.674,325.22l8.086-21.434Z" transform="translate(-290.84 -127.781)" fill="#e4e4e4"/>
    <path id="Path_355" data-name="Path 355" d="M658.268,305.951l-47.119-17.728-1.226-7.328,29.716-25.145,9.89,7.419L631.6,282.8l31.9,1.215Z" transform="translate(-257.582 -108.008)" fill="#e4e4e4"/>
    <circle id="Ellipse_15" data-name="Ellipse 15" cx="7.62" cy="7.62" r="7.62" transform="translate(380.151 142.786)" fill="#ffb6b6"/>
    <path id="Path_356" data-name="Path 356" d="M855.441,350.606l3.443-15.526a21.31,21.31,0,1,1,41.609,9.227l-3.444,15.526a2.866,2.866,0,0,1-3.414,2.175l-36.02-7.988a2.866,2.866,0,0,1-2.175-3.414Z" transform="translate(-449.999 -190.601)" fill="#2f2e41"/>
    <circle id="Ellipse_16" data-name="Ellipse 16" cx="15.624" cy="15.624" r="15.624" transform="translate(405.459 140.193) rotate(-16.159)" fill="#ffb6b6"/>
    <path id="Path_357" data-name="Path 357" d="M852.4,337.895a16.876,16.876,0,0,1,20.107-12.808l3.105.689a16.876,16.876,0,0,1,12.808,20.107l-.069.311-6.562-1.455-.849-6.764-1.837,6.168-3.391-.752-.428-3.413-.927,3.112-22.025-4.884Z" transform="translate(-448.716 -193.265)" fill="#2f2e41"/>
    <path id="Path_358" data-name="Path 358" d="M879.586,367.221a2.82,2.82,0,0,1,.43-2.972c4.679-5.529,11.85-16.072,7.317-24.561l-.326-.61,17.754,3.937-5.911,26.654-16.759-.731a2.923,2.923,0,0,1-.5-.066,2.851,2.851,0,0,1-2-1.652Z" transform="translate(-460.122 -199.343)" fill="#2f2e41"/>
    <path id="Path_359" data-name="Path 359" d="M763.276,303.124l49.842,7.087,2.787,6.888L792.35,348.09l-11.264-5.1,13.243-23.05-31.4,5.732Z" transform="translate(-322.198 -128.015)" fill="#e4e4e4"/>
    <path id="Path_360" data-name="Path 360" d="M973.711,184.151c0-31.9-22.243-57.768-49.68-57.768s-49.681,25.864-49.681,57.768c0,28.936,18.3,52.9,42.171,57.112v5.444a3.878,3.878,0,0,0,3.878,3.878h7.264a3.878,3.878,0,0,0,3.878-3.878v-5.444C955.416,237.053,973.711,213.087,973.711,184.151Z" transform="translate(-458.013 -109.517)" fill="#f6c400"/>
    <path id="Path_361" data-name="Path 361" d="M943.091,328.878a14.942,14.942,0,0,1,11.894-3.962,14.024,14.024,0,0,1,10.337,6.634,14.662,14.662,0,0,1,1.58,12.168c-1.226,3.969-3.916,7.292-6.72,10.271-2.992,3.178-6.269,6.083-9.129,9.385a43.753,43.753,0,0,0,5.429,62.639q1.3,1.055,2.668,2.013c.916.64,1.783-.861.875-1.5a42.062,42.062,0,0,1-7.2-62.556c2.94-3.282,6.252-6.206,9.225-9.456,2.848-3.113,5.462-6.607,6.632-10.721a16.332,16.332,0,0,0-1.495-12.491,15.928,15.928,0,0,0-10.106-7.776,16.846,16.846,0,0,0-12.646,2.1,15.957,15.957,0,0,0-2.575,2.026c-.8.776.423,2,1.225,1.225Z" transform="translate(-485.895 -192.595)" fill="#3f3d56"/>
    <circle id="Ellipse_17" data-name="Ellipse 17" cx="7.62" cy="7.62" r="7.62" transform="translate(455.585 213.649)" fill="#ffb6b6"/>
    <path id="Path_362" data-name="Path 362" d="M811.244,354.88a1.378,1.378,0,0,1-1.912.145,1.538,1.538,0,0,1,.009-2.229c1.653-1.984,4.386.111,4.754,2.081a4.956,4.956,0,0,1-2.332,4.935,5.335,5.335,0,0,1-5.956-.78c-3.382-2.789-2.461-8.375,1.3-10.393,2.4-1.288,5.428-.723,7.789.356,2.658,1.214,4.944,3.076,7.4,4.628a41.272,41.272,0,0,0,17.827,6.087c1.109.113,1.1-1.621,0-1.733a39.643,39.643,0,0,1-10.243-2.466,45.014,45.014,0,0,1-9.2-5.052c-2.894-1.984-5.918-3.911-9.5-4.239a8.241,8.241,0,0,0-7.6,3.306,8.416,8.416,0,0,0-1.265,7.383,7.794,7.794,0,0,0,5.941,5.115,6.372,6.372,0,0,0,6.717-3.1,5.91,5.91,0,0,0-.716-7.233,4.6,4.6,0,0,0-4.47-1.216,3.933,3.933,0,0,0-2.659,3.384c-.192,2.96,4.009,4.44,5.615,1.9.6-.945-.9-1.816-1.5-.875Z" transform="translate(-427.44 -202.335)" fill="#3f3d56"/>
    <path id="Path_363" data-name="Path 363" d="M56.6,421.79l-2.289,2.872-8.1-4.789L48.509,417Z" transform="translate(-19.52 -176.107)" fill="#e4e4e4"/>
    <path id="Path_364" data-name="Path 364" d="M72.6,446.651l2.022,3.017-8.5,4.23L64.1,450.881Z" transform="translate(-27.069 -188.629)" fill="#e4e4e4"/>
    <path id="Path_365" data-name="Path 365" d="M93.765,423.945l4.04.143-.4,8.454-4.04-.143Z" transform="translate(-39.429 -179.04)" fill="#e4e4e4"/>
    <path id="Path_366" data-name="Path 366" d="M221.6,25.79l-2.289,2.872-8.1-4.789L213.509,21Z" transform="translate(-89.202 -8.869)" fill="#e4e4e4"/>
    <path id="Path_367" data-name="Path 367" d="M237.6,50.651l2.022,3.017-8.5,4.23L229.1,54.881Z" transform="translate(-96.752 -21.391)" fill="#e4e4e4"/>
    <path id="Path_368" data-name="Path 368" d="M258.765,27.945l4.04.143-.4,8.454-4.04-.143Z" transform="translate(-109.112 -11.802)" fill="#e4e4e4"/>
    <path id="Path_369" data-name="Path 369" d="M610.6,77.79l-2.289,2.872-8.1-4.789L602.509,73Z" transform="translate(-253.485 -30.829)" fill="#e4e4e4"/>
    <path id="Path_370" data-name="Path 370" d="M626.6,102.651l2.022,3.017-8.5,4.23-2.022-3.017Z" transform="translate(-261.034 -43.352)" fill="#e4e4e4"/>
    <path id="Path_371" data-name="Path 371" d="M647.765,79.945l4.04.143-.4,8.454-4.04-.143Z" transform="translate(-273.394 -33.762)" fill="#e4e4e4"/>
    <path id="Path_372" data-name="Path 372" d="M491.6,4.79l-2.289,2.872-8.1-4.789L483.509,0Z" transform="translate(-203.229)" fill="#e4e4e4"/>
    <path id="Path_373" data-name="Path 373" d="M507.6,29.651l2.022,3.017-8.5,4.23L499.1,33.881Z" transform="translate(-210.778 -12.522)" fill="#e4e4e4"/>
    <path id="Path_374" data-name="Path 374" d="M528.765,6.945l4.04.143-.4,8.454-4.04-.143Z" transform="translate(-223.138 -2.933)" fill="#e4e4e4"/>
    <rect id="Rectangle_53" data-name="Rectangle 53" width="4.044" height="9.821" transform="matrix(0.566, -0.824, 0.824, 0.566, 355.977, 224.005)" fill="#e4e4e4"/>
    <rect id="Rectangle_54" data-name="Rectangle 54" width="4.044" height="9.821" transform="translate(368.328 248.965) rotate(-120)" fill="#e4e4e4"/>
    <rect id="Rectangle_55" data-name="Rectangle 55" width="4.044" height="9.821" transform="matrix(-0.999, -0.041, 0.041, -0.999, 387.251, 235.31)" fill="#e4e4e4"/>
    <path id="Path_375" data-name="Path 375" d="M313.1,602.2l7-1.083-4.8-55.919-15.6,2.888Z" transform="translate(-126.572 -230.247)" fill="#ffb6b6"/>
    <path id="Path_376" data-name="Path 376" d="M472.842,735.944l13.784-2.132h0a8.889,8.889,0,0,1,10.142,7.426l.044.285-22.568,3.49Z" transform="translate(-288.449 -366.002)" fill="#2f2e41"/>
    <path id="Path_377" data-name="Path 377" d="M195.562,606.573l7.075.3,8.606-49.678h-15.6Z" transform="translate(-82.59 -235.315)" fill="#ffb6b6"/>
    <path id="Path_378" data-name="Path 378" d="M345.969,735.725l13.935.594h0a8.889,8.889,0,0,1,8.5,9.259l-.012.289-22.815-.972Z" transform="translate(-234.703 -366.854)" fill="#2f2e41"/>
    <path id="Path_379" data-name="Path 379" d="M364.635,400.881a5.79,5.79,0,0,0-1.021-.19l4.411-36.105,14.967-31.7a8.711,8.711,0,0,0-15.159-8.5h0a68.728,68.728,0,0,0-8.795,19.408L352.75,366.53l4.6,38.989a5.775,5.775,0,1,0,7.287-4.639Z" transform="translate(-237.732 -191.477)" fill="#ffb6b6"/>
    <path id="Path_380" data-name="Path 380" d="M375.23,364.862,356.32,343.23l9.368-22.034a12.017,12.017,0,0,1,22.338,8.847Z" transform="translate(-239.239 -188.698)" fill="#2f2e41"/>
    <circle id="Ellipse_18" data-name="Ellipse 18" cx="17.174" cy="17.174" r="17.174" transform="translate(129.048 105.798) rotate(-61.337)" fill="#ffb6b6"/>
    <path id="Path_381" data-name="Path 381" d="M404.617,232.383H393.523c-7.273,0-13.169,6.633-13.169,14.815l.513,19.846a86.2,86.2,0,0,1,22.842,6.109l1.035-4.422,2.042,5.823q2.725,1.32,5.4,2.887c-2.084-9.792-2.942-19.562-1.511-27.151h3.757v-4.112l1.276,4.112h6.812a17.908,17.908,0,0,0-17.908-17.908Z" transform="translate(-249.389 -154.283)" fill="#2f2e41"/>
    <path id="Path_382" data-name="Path 382" d="M425.8,503.654l-1.607.387-1.349-25.088-9.821-75.1-11.265-28.6,5.488-19.93s6.354-13.864-9.532-24.551L385.009,309.4c-8.779-5.74-16-1.987-19.852,7.77-3.355,8.5-5.959,19.256-4.41,30.357,3.47,24.867,6.354,27.729,6.354,27.729s-21.663,23.974-17.042,54.591l-2.576,79.272-2.356-.1-.258,6.3,20.586.844.258-6.3-1.708-.07,7.427-31.424,10.976-41.593,19.063,50.836,6.412,20.351-2.112.509,1.476,6.127,20.031-4.824Z" transform="translate(-234.403 -185.666)" fill="#2f2e41"/>
    <path id="Path_383" data-name="Path 383" d="M459.612,364.58a5.79,5.79,0,0,0-.626.829l-30.33-20.079-21.669-27.552a8.711,8.711,0,0,0-14.379,9.763h0a68.728,68.728,0,0,0,13.433,16.54l17.53,15.784,36.936,13.307a5.775,5.775,0,1,0-.894-8.592Z" transform="translate(-254.065 -188.942)" fill="#ffb6b6"/>
    <path id="Path_384" data-name="Path 384" d="M431.239,338.941l-27.8,7.252-15.526-18.226a12.017,12.017,0,0,1,17.9-16.031Z" transform="translate(-251.369 -186.284)" fill="#2f2e41"/>
    <path id="Path_385" data-name="Path 385" d="M564.172,753.293H190.243a.688.688,0,1,1,0-1.376H564.172a.688.688,0,0,1,0,1.376Z" transform="translate(-168.811 -373.692)" fill="#cacaca"/>
  </g>
  <rect id="Rectangle_56" data-name="Rectangle 56" width="750" height="530" fill="none"/>
</svg>
